<svg width="54" height="101" viewBox="0 0 54 101" fill="none" xmlns="http://www.w3.org/2000/svg">
<circle cx="26.5" cy="7.5" r="7.5" fill="#565656"/>
<rect x="5" y="48" width="43" height="12" rx="6" fill="#565656"/>
<rect x="5" y="48" width="43" height="12" rx="6" fill="#565656"/>
<rect y="89" width="54" height="12" rx="6" fill="#565656"/>
<rect x="1" y="70" width="51" height="25" rx="10" fill="#565656"/>
<rect x="40" y="39" width="42" height="27" rx="10" transform="rotate(90 40 39)" fill="#565656"/>
<path d="M27 39L48.6506 76.5H5.34937L27 39Z" fill="#565656"/>
<path d="M48 32.5C48 44.3741 38.3741 54 26.5 54C14.6259 54 5 44.3741 5 32.5C5 20.6259 14.6259 11 26.5 11C38.3741 11 48 20.6259 48 32.5Z" fill="#565656"/>
<path d="M36.266 29.4531C34.4622 28.7582 33.5634 26.7326 34.2583 24.9288L38.6772 13.4591C39.5 14 40.5044 14.9006 41.5 16C42.6275 17.2451 44.6949 17.6962 44 19.5L40.7903 27.4454C40.0953 29.2491 38.0698 30.148 36.266 29.4531Z" fill="#EBE4DB"/>
</svg>
