<svg width="54" height="90" viewBox="0 0 54 90" fill="none" xmlns="http://www.w3.org/2000/svg">
<path d="M48 21.5C48 33.3741 38.3741 43 26.5 43C14.6259 43 5 33.3741 5 21.5C5 9.62588 14.6259 0 26.5 0C38.3741 0 48 9.62588 48 21.5Z" fill="#565656"/>
<path d="M5 43C5 39.6863 7.68629 37 11 37H42C45.3137 37 48 39.6863 48 43C48 46.3137 45.3137 49 42 49H11C7.68629 49 5 46.3137 5 43Z" fill="#565656"/>
<path d="M5 43C5 39.6863 7.68629 37 11 37H42C45.3137 37 48 39.6863 48 43C48 46.3137 45.3137 49 42 49H11C7.68629 49 5 46.3137 5 43Z" fill="#565656"/>
<path d="M0 84C0 80.6863 2.68629 78 6 78H48C51.3137 78 54 80.6863 54 84C54 87.3137 51.3137 90 48 90H6C2.68629 90 0 87.3137 0 84Z" fill="#565656"/>
<path d="M1 69C1 63.4771 5.47715 59 11 59H42C47.5228 59 52 63.4771 52 69V74C52 79.5228 47.5228 84 42 84H11C5.47715 84 1 79.5228 1 74V69Z" fill="#565656"/>
<path d="M30 28C35.5228 28 40 32.4771 40 38V60C40 65.5228 35.5228 70 30 70H23C17.4772 70 13 65.5228 13 60L13 38C13 32.4771 17.4772 28 23 28H30Z" fill="#565656"/>
<path d="M27 28L48.6506 65.5H5.34937L27 28Z" fill="#565656"/>
</svg>
