<svg width="54" height="93" viewBox="0 0 54 93" fill="none" xmlns="http://www.w3.org/2000/svg">
<circle cx="27.5" cy="24.5" r="21.5" fill="#565656"/>
<rect x="6" y="40" width="43" height="12" rx="6" fill="#565656"/>
<rect x="6" y="40" width="43" height="12" rx="6" fill="#565656"/>
<rect y="81" width="54" height="12" rx="6" fill="#565656"/>
<rect x="2" y="62" width="51" height="25" rx="10" fill="#565656"/>
<rect x="2" y="3" width="51" height="37" rx="10" fill="#565656"/>
<rect x="41" y="31" width="42" height="27" rx="10" transform="rotate(90 41 31)" fill="#565656"/>
<path d="M27 31L48.6506 68.5H5.34937L27 31Z" fill="#565656"/>
<path d="M17.5 14C15.567 14 14 12.433 14 10.5L14 3.30632C14 2.00711 15.5239 1.30621 16.5103 2.15173V2.15173C17.0798 2.63985 17.9202 2.63985 18.4897 2.15173V2.15173C19.4761 1.30621 21 2.00711 21 3.30632L21 10.5C21 12.433 19.433 14 17.5 14V14Z" fill="#EBE4DB"/>
<path d="M37.5 14C35.567 14 34 12.433 34 10.5L34 3.30632C34 2.00711 35.5239 1.30621 36.5103 2.15173V2.15173C37.0798 2.63985 37.9202 2.63985 38.4897 2.15173V2.15173C39.4761 1.30621 41 2.00711 41 3.30632L41 10.5C41 12.433 39.433 14 37.5 14V14Z" fill="#EBE4DB"/>
</svg>
